<?xml version="1.0" encoding="UTF-8" standalone="no"?>
<!-- Created with Inkscape (http://www.inkscape.org/) -->

<svg
   width="420mm"
   height="297mm"
   viewBox="0 0 420 297"
   version="1.1"
   id="svg5"
   inkscape:version="1.3 (0e150ed6c4, 2023-07-21)"
   sodipodi:docname="A1 Diagram Template.svg"
   xmlns:inkscape="http://www.inkscape.org/namespaces/inkscape"
   xmlns:sodipodi="http://sodipodi.sourceforge.net/DTD/sodipodi-0.dtd"
   xmlns="http://www.w3.org/2000/svg"
   xmlns:svg="http://www.w3.org/2000/svg">
  <sodipodi:namedview
     id="namedview7"
     pagecolor="#ffffff"
     bordercolor="#666666"
     borderopacity="1.0"
     inkscape:pageshadow="2"
     inkscape:pageopacity="0.0"
     inkscape:pagecheckerboard="0"
     inkscape:document-units="mm"
     showgrid="false"
     units="mm"
     inkscape:zoom="0.19442866"
     inkscape:cx="-252.02045"
     inkscape:cy="424.32015"
     inkscape:window-width="1600"
     inkscape:window-height="829"
     inkscape:window-x="-8"
     inkscape:window-y="-8"
     inkscape:window-maximized="1"
     inkscape:current-layer="layer2"
     inkscape:showpageshadow="2"
     inkscape:deskcolor="#d1d1d1" />
  <defs
     id="defs2" />
  <g
     inkscape:label="Drawing information"
     inkscape:groupmode="layer"
     id="layer1"
     style="display:inline"
     sodipodi:insensitive="true">
    <g
       id="g1">
      <g
         id="g186"
         transform="matrix(0.35277777,0,0,-0.35277777,14.157141,286.11117)">
        <path
           d="M 0,0 H 1105.5"
           style="fill:none;stroke:#000000;stroke-width:0.72;stroke-linecap:round;stroke-linejoin:round;stroke-miterlimit:10;stroke-dasharray:none;stroke-opacity:1"
           id="path188" />
      </g>
      <g
         id="g190"
         transform="matrix(0.35277777,0,0,-0.35277777,404.15279,286.11117)">
        <path
           d="M 0,0 V 785.16 H -1105.5 V 0"
           style="fill:none;stroke:#000000;stroke-width:0.72;stroke-linecap:round;stroke-linejoin:round;stroke-miterlimit:10;stroke-dasharray:none;stroke-opacity:1"
           id="path192" />
      </g>
      <g
         id="g194"
         transform="matrix(0.35277777,0,0,-0.35277777,209.16557,291.10654)">
        <path
           d="M 0,0 V 28.32"
           style="fill:none;stroke:#000000;stroke-width:0.72;stroke-linecap:round;stroke-linejoin:round;stroke-miterlimit:10;stroke-dasharray:none;stroke-opacity:1"
           id="path196" />
      </g>
      <g
         id="g198"
         transform="matrix(0.35277777,0,0,-0.35277777,209.16557,4.1289112)">
        <path
           d="M 0,0 V -28.32"
           style="fill:none;stroke:#000000;stroke-width:0.72;stroke-linecap:round;stroke-linejoin:round;stroke-miterlimit:10;stroke-dasharray:none;stroke-opacity:1"
           id="path200" />
      </g>
      <g
         id="g202"
         transform="matrix(0.35277777,0,0,-0.35277777,259.16113,4.1289112)">
        <path
           d="M 0,0 V -14.16"
           style="fill:none;stroke:#000000;stroke-width:0.72;stroke-linecap:round;stroke-linejoin:round;stroke-miterlimit:10;stroke-dasharray:none;stroke-opacity:1"
           id="path204" />
      </g>
      <g
         id="g206"
         transform="matrix(0.35277777,0,0,-0.35277777,309.15707,4.1289112)">
        <path
           d="M 0,0 V -14.16"
           style="fill:none;stroke:#000000;stroke-width:0.72;stroke-linecap:round;stroke-linejoin:round;stroke-miterlimit:10;stroke-dasharray:none;stroke-opacity:1"
           id="path208" />
      </g>
      <g
         id="g210"
         transform="matrix(0.35277777,0,0,-0.35277777,359.15263,4.1289112)">
        <path
           d="M 0,0 V -14.16"
           style="fill:none;stroke:#000000;stroke-width:0.72;stroke-linecap:round;stroke-linejoin:round;stroke-miterlimit:10;stroke-dasharray:none;stroke-opacity:1"
           id="path212" />
      </g>
      <g
         id="g214"
         transform="matrix(0.35277777,0,0,-0.35277777,159.17001,4.1289112)">
        <path
           d="M 0,0 V -14.16"
           style="fill:none;stroke:#000000;stroke-width:0.72;stroke-linecap:round;stroke-linejoin:round;stroke-miterlimit:10;stroke-dasharray:none;stroke-opacity:1"
           id="path216" />
      </g>
      <g
         id="g218"
         transform="matrix(0.35277777,0,0,-0.35277777,109.15307,4.1289112)">
        <path
           d="M 0,0 V -14.16"
           style="fill:none;stroke:#000000;stroke-width:0.72;stroke-linecap:round;stroke-linejoin:round;stroke-miterlimit:10;stroke-dasharray:none;stroke-opacity:1"
           id="path220" />
      </g>
      <g
         id="g222"
         transform="matrix(0.35277777,0,0,-0.35277777,59.157509,4.1289112)">
        <path
           d="M 0,0 V -14.16"
           style="fill:none;stroke:#000000;stroke-width:0.72;stroke-linecap:round;stroke-linejoin:round;stroke-miterlimit:10;stroke-dasharray:none;stroke-opacity:1"
           id="path224" />
      </g>
      <g
         id="g226"
         transform="matrix(0.35277777,0,0,-0.35277777,9.161773,147.61764)">
        <path
           d="M 0,0 H 28.38"
           style="fill:none;stroke:#000000;stroke-width:0.72;stroke-linecap:round;stroke-linejoin:round;stroke-miterlimit:10;stroke-dasharray:none;stroke-opacity:1"
           id="path228" />
      </g>
      <g
         id="g230"
         transform="matrix(0.35277777,0,0,-0.35277777,9.161773,195.45451)">
        <path
           d="M 0,0 H 14.16"
           style="fill:none;stroke:#000000;stroke-width:0.72;stroke-linecap:round;stroke-linejoin:round;stroke-miterlimit:10;stroke-dasharray:none;stroke-opacity:1"
           id="path232" />
      </g>
      <g
         id="g234"
         transform="matrix(0.35277777,0,0,-0.35277777,9.161773,243.29104)">
        <path
           d="M 0,0 H 14.16"
           style="fill:none;stroke:#000000;stroke-width:0.72;stroke-linecap:round;stroke-linejoin:round;stroke-miterlimit:10;stroke-dasharray:none;stroke-opacity:1"
           id="path236" />
      </g>
      <g
         id="g238"
         transform="matrix(0.35277777,0,0,-0.35277777,9.161773,99.781111)">
        <path
           d="M 0,0 H 14.16"
           style="fill:none;stroke:#000000;stroke-width:0.72;stroke-linecap:round;stroke-linejoin:round;stroke-miterlimit:10;stroke-dasharray:none;stroke-opacity:1"
           id="path240" />
      </g>
      <g
         id="g242"
         transform="matrix(0.35277777,0,0,-0.35277777,9.161773,51.94441)">
        <path
           d="M 0,0 H 14.16"
           style="fill:none;stroke:#000000;stroke-width:0.72;stroke-linecap:round;stroke-linejoin:round;stroke-miterlimit:10;stroke-dasharray:none;stroke-opacity:1"
           id="path244" />
      </g>
      <g
         id="g246"
         transform="matrix(0.35277777,0,0,-0.35277777,409.14819,147.61764)">
        <path
           d="M 0,0 H -28.319"
           style="fill:none;stroke:#000000;stroke-width:0.72;stroke-linecap:round;stroke-linejoin:round;stroke-miterlimit:10;stroke-dasharray:none;stroke-opacity:1"
           id="path248" />
      </g>
      <g
         id="g250"
         transform="matrix(0.35277777,0,0,-0.35277777,259.16113,291.10654)">
        <path
           d="M 0,0 V 14.16"
           style="fill:none;stroke:#000000;stroke-width:0.72;stroke-linecap:round;stroke-linejoin:round;stroke-miterlimit:10;stroke-dasharray:none;stroke-opacity:1"
           id="path252" />
      </g>
      <g
         id="g254"
         transform="matrix(0.35277777,0,0,-0.35277777,309.15707,291.10654)">
        <path
           d="M 0,0 V 14.16"
           style="fill:none;stroke:#000000;stroke-width:0.72;stroke-linecap:round;stroke-linejoin:round;stroke-miterlimit:10;stroke-dasharray:none;stroke-opacity:1"
           id="path256" />
      </g>
      <g
         id="g258"
         transform="matrix(0.35277777,0,0,-0.35277777,359.15263,291.10654)">
        <path
           d="M 0,0 V 14.16"
           style="fill:none;stroke:#000000;stroke-width:0.72;stroke-linecap:round;stroke-linejoin:round;stroke-miterlimit:10;stroke-dasharray:none;stroke-opacity:1"
           id="path260" />
      </g>
      <g
         id="g262"
         transform="matrix(0.35277777,0,0,-0.35277777,159.17001,291.10654)">
        <path
           d="M 0,0 V 14.16"
           style="fill:none;stroke:#000000;stroke-width:0.72;stroke-linecap:round;stroke-linejoin:round;stroke-miterlimit:10;stroke-dasharray:none;stroke-opacity:1"
           id="path264" />
      </g>
      <g
         id="g266"
         transform="matrix(0.35277777,0,0,-0.35277777,109.15307,291.10654)">
        <path
           d="M 0,0 V 14.16"
           style="fill:none;stroke:#000000;stroke-width:0.72;stroke-linecap:round;stroke-linejoin:round;stroke-miterlimit:10;stroke-dasharray:none;stroke-opacity:1"
           id="path268" />
      </g>
      <g
         id="g270"
         transform="matrix(0.35277777,0,0,-0.35277777,59.157509,291.10654)">
        <path
           d="M 0,0 V 14.16"
           style="fill:none;stroke:#000000;stroke-width:0.72;stroke-linecap:round;stroke-linejoin:round;stroke-miterlimit:10;stroke-dasharray:none;stroke-opacity:1"
           id="path272" />
      </g>
      <g
         id="g274"
         transform="matrix(0.35277777,0,0,-0.35277777,409.14819,195.45451)">
        <path
           d="M 0,0 H -14.16"
           style="fill:none;stroke:#000000;stroke-width:0.72;stroke-linecap:round;stroke-linejoin:round;stroke-miterlimit:10;stroke-dasharray:none;stroke-opacity:1"
           id="path276" />
      </g>
      <g
         id="g278"
         transform="matrix(0.35277777,0,0,-0.35277777,409.14819,243.29104)">
        <path
           d="M 0,0 H -14.16"
           style="fill:none;stroke:#000000;stroke-width:0.72;stroke-linecap:round;stroke-linejoin:round;stroke-miterlimit:10;stroke-dasharray:none;stroke-opacity:1"
           id="path280" />
      </g>
      <g
         id="g282"
         transform="matrix(0.35277777,0,0,-0.35277777,409.14819,99.781111)">
        <path
           d="M 0,0 H -14.16"
           style="fill:none;stroke:#000000;stroke-width:0.72;stroke-linecap:round;stroke-linejoin:round;stroke-miterlimit:10;stroke-dasharray:none;stroke-opacity:1"
           id="path284" />
      </g>
      <g
         id="g286"
         transform="matrix(0.35277777,0,0,-0.35277777,409.14819,51.94441)">
        <path
           d="M 0,0 H -14.16"
           style="fill:none;stroke:#000000;stroke-width:0.72;stroke-linecap:round;stroke-linejoin:round;stroke-miterlimit:10;stroke-dasharray:none;stroke-opacity:1"
           id="path288" />
      </g>
      <text
         style="font-variant:normal;font-weight:normal;font-stretch:normal;font-size:3.49236px;font-family:Arial;-inkscape-font-specification:ArialMT;writing-mode:lr-tb;fill:#000000;fill-opacity:1;fill-rule:nonzero;stroke:none;stroke-width:0.352778"
         id="text336"
         x="33.185974"
         y="7.8756227"><tspan
           x="33.185974"
           y="7.8756227"
           id="tspan290"
           style="stroke-width:0.352778">1</tspan><tspan
           x="10.496119"
           y="29.297752"
           id="tspan292"
           style="stroke-width:0.352778">A</tspan><tspan
           x="83.182579"
           y="7.8756227"
           id="tspan294"
           style="stroke-width:0.352778">2</tspan><tspan
           x="133.20013"
           y="7.8546686"
           id="tspan296"
           style="stroke-width:0.352778">3</tspan><tspan
           x="183.19675"
           y="7.8756227"
           id="tspan298"
           style="stroke-width:0.352778">4</tspan><tspan
           x="233.19336"
           y="7.8337145"
           id="tspan300"
           style="stroke-width:0.352778">5</tspan><tspan
           x="283.18997 333.18658 383.1832"
           y="7.8546686"
           sodipodi:role="line"
           id="tspan302"
           style="stroke-width:0.352778">678</tspan><tspan
           x="33.192959 83.189568"
           y="289.85565"
           sodipodi:role="line"
           id="tspan304"
           style="stroke-width:0.352778">12</tspan><tspan
           x="133.20712"
           y="289.83469"
           id="tspan306"
           style="stroke-width:0.352778">3</tspan><tspan
           x="183.20374"
           y="289.85565"
           id="tspan308"
           style="stroke-width:0.352778">4</tspan><tspan
           x="233.20035"
           y="289.81375"
           id="tspan310"
           style="stroke-width:0.352778">5</tspan><tspan
           x="283.19696 333.19357 383.19019"
           y="289.83469"
           sodipodi:role="line"
           id="tspan312"
           style="stroke-width:0.352778">678</tspan><tspan
           x="10.51009"
           y="77.111633"
           id="tspan314"
           style="stroke-width:0.352778">B</tspan><tspan
           x="10.426271"
           y="124.94648"
           id="tspan316"
           style="stroke-width:0.352778">C</tspan><tspan
           x="10.426271"
           y="172.78131"
           id="tspan318"
           style="stroke-width:0.352778">D</tspan><tspan
           x="10.51009"
           y="220.61615"
           id="tspan320"
           style="stroke-width:0.352778">E</tspan><tspan
           x="10.61486"
           y="268.43005"
           id="tspan322"
           style="stroke-width:0.352778">F</tspan><tspan
           x="405.49936"
           y="29.290766"
           id="tspan324"
           style="stroke-width:0.352778">A</tspan><tspan
           x="405.49936"
           y="77.104652"
           id="tspan326"
           style="stroke-width:0.352778">B</tspan><tspan
           x="405.41553"
           y="124.93949"
           id="tspan328"
           style="stroke-width:0.352778">C</tspan><tspan
           x="405.41553"
           y="172.77432"
           id="tspan330"
           style="stroke-width:0.352778">D</tspan><tspan
           x="405.49936"
           y="220.60916"
           id="tspan332"
           style="stroke-width:0.352778">E</tspan><tspan
           x="405.60416"
           y="268.42303"
           id="tspan334"
           style="stroke-width:0.352778">F</tspan></text>
      <g
         id="g338"
         transform="matrix(0.35277777,0,0,-0.35277777,224.15174,286.11117)">
        <path
           d="M 0,0 H 510.239"
           style="fill:none;stroke:#000000;stroke-width:1.02;stroke-linecap:round;stroke-linejoin:round;stroke-miterlimit:10;stroke-dasharray:none;stroke-opacity:1"
           id="path340" />
      </g>
      <g
         id="g342"
         transform="matrix(0.35277777,0,0,-0.35277777,343.15049,276.12075)">
        <path
           d="M 0,0 H 172.92"
           style="fill:none;stroke:#000000;stroke-width:1.02;stroke-linecap:round;stroke-linejoin:round;stroke-miterlimit:10;stroke-dasharray:none;stroke-opacity:1"
           id="path344" />
      </g>
      <g
         id="g346"
         transform="matrix(0.35277777,0,0,-0.35277777,282.1482,259.12367)">
        <path
           d="M 0,0 H 345.84"
           style="fill:none;stroke:#000000;stroke-width:1.02;stroke-linecap:round;stroke-linejoin:round;stroke-miterlimit:10;stroke-dasharray:none;stroke-opacity:1"
           id="path348" />
      </g>
      <g
         id="g350"
         transform="matrix(0.35277777,0,0,-0.35277777,224.15174,249.11187)">
        <path
           d="M 0,0 H 510.239"
           style="fill:none;stroke:#000000;stroke-width:1.02;stroke-linecap:round;stroke-linejoin:round;stroke-miterlimit:10;stroke-dasharray:none;stroke-opacity:1"
           id="path352" />
      </g>
      <g
         id="g354"
         transform="matrix(0.35277777,0,0,-0.35277777,404.15279,286.11117)">
        <path
           d="M 0,0 V 133.199"
           style="fill:none;stroke:#000000;stroke-width:1.02;stroke-linecap:round;stroke-linejoin:round;stroke-miterlimit:10;stroke-dasharray:none;stroke-opacity:1"
           id="path356" />
      </g>
      <g
         id="g358"
         transform="matrix(0.35277777,0,0,-0.35277777,389.14562,286.11117)">
        <path
           d="M 0,0 V 28.319"
           style="fill:none;stroke:#000000;stroke-width:1.02;stroke-linecap:round;stroke-linejoin:round;stroke-miterlimit:10;stroke-dasharray:none;stroke-opacity:1"
           id="path360" />
      </g>
      <g
         id="g362"
         transform="matrix(0.35277777,0,0,-0.35277777,353.16229,286.11117)">
        <path
           d="M 0,0 V 28.319"
           style="fill:none;stroke:#000000;stroke-width:1.02;stroke-linecap:round;stroke-linejoin:round;stroke-miterlimit:10;stroke-dasharray:none;stroke-opacity:1"
           id="path364" />
      </g>
      <g
         id="g366"
         transform="matrix(0.35277777,0,0,-0.35277777,343.15049,286.11117)">
        <path
           d="M 0,0 V 133.199"
           style="fill:none;stroke:#000000;stroke-width:1.02;stroke-linecap:round;stroke-linejoin:round;stroke-miterlimit:10;stroke-dasharray:none;stroke-opacity:1"
           id="path368" />
      </g>
      <g
         id="g370"
         transform="matrix(0.35277777,0,0,-0.35277777,282.1482,286.11117)">
        <path
           d="M 0,0 V 133.199"
           style="fill:none;stroke:#000000;stroke-width:1.02;stroke-linecap:round;stroke-linejoin:round;stroke-miterlimit:10;stroke-dasharray:none;stroke-opacity:1"
           id="path372" />
      </g>
      <g
         id="g374"
         transform="matrix(0.35277777,0,0,-0.35277777,248.15474,249.11187)">
        <path
           d="M 0,0 V 28.319"
           style="fill:none;stroke:#000000;stroke-width:1.02;stroke-linecap:round;stroke-linejoin:round;stroke-miterlimit:10;stroke-dasharray:none;stroke-opacity:1"
           id="path376" />
      </g>
      <g
         id="g378"
         transform="matrix(0.35277777,0,0,-0.35277777,404.15279,239.12145)">
        <path
           d="M 0,0 H -510.239 V -133.199"
           style="fill:none;stroke:#000000;stroke-width:1.02;stroke-linecap:round;stroke-linejoin:round;stroke-miterlimit:10;stroke-dasharray:none;stroke-opacity:1"
           id="path380" />
      </g>
      <text
         style="font-variant:normal;font-weight:normal;font-stretch:normal;font-size:2.51449px;font-family:Arial;-inkscape-font-specification:ArialMT;writing-mode:lr-tb;fill:#000000;fill-opacity:1;fill-rule:nonzero;stroke:none;stroke-width:0.352778"
         id="text390"
         x="225.16771"
         y="241.91542"><tspan
           x="225.16771 226.98317 228.38124 229.7793 230.47832 249.14844 250.6848 252.08286 253.3401 254.73816 256.13623 256.69443 257.95169 259.34973 259.90796 260.60699 261.44431 262.84238 263.54141 264.93945 265.77679 267.17487 268.57291 269.83017 283.16202 284.97748 285.81479 287.21286 288.6109 289.30994 290.70801 292.10605 292.80508 294.20316 344.14352 345.82068 347.21875 348.61679 349.45413 350.85217 352.10944 353.50751 354.90555 355.60458 357.00266"
           y="241.91542"
           sodipodi:role="line"
           id="tspan382"
           style="stroke-width:0.352778">Dept.Technical referenceCreated byApproved by</tspan><tspan
           x="283.16202 284.97748 286.37552 287.63278 289.03082 291.1254 292.52347 293.92151 294.62054 295.31958 296.01862 297.27585 298.67392 344.14352 345.95898 347.35706 348.61429 350.01236 352.1069 353.50497 354.90305 355.60205 356.30109 357.55832 358.25735 359.65543 360.35446 361.7525"
           y="251.9055"
           sodipodi:role="line"
           id="tspan384"
           style="stroke-width:0.352778">Document typeDocument status</tspan><tspan
           x="283.16202 284.69836 285.25656 285.9556 286.51382 344.14352 345.95898 348.33267 350.28894 350.98798 352.80344 354.20148"
           y="261.91821"
           sodipodi:role="line"
           id="tspan386"
           style="stroke-width:0.352778">TitleDWG No.</tspan><tspan
           x="344.14352 345.95898 347.35706 348.61429 354.15622 355.97171 357.36975 358.06879 359.46683 360.16586 361.56393 362.26297 362.96198 363.5202 364.77747 366.0347 367.43274 390.16129 391.83844 393.23648 394.63455 396.03262"
           y="278.9137"
           sodipodi:role="line"
           id="tspan388"
           style="stroke-width:0.352778">Rev.Date of issueSheet</tspan></text>
    </g>
  </g>
  <g
     inkscape:groupmode="layer"
     id="layer2"
     inkscape:label="Diagrams" />
</svg>
